# xmcd
#
# Track frame offsets:
#	150
#	14526
#	23896
#	40124
#	50856
#	68398
#	83758
#	95048
#	106140
#	115662
#	127474
#	145781
#	156211
#	173381
#	185970
#	202158
#	212424
#	225627
#	240823
#	251590
#
# Disc length: 3530 seconds
#
# Revision: 1
# Processed by: cddbd v1.5.2PL0 Copyright (c) Steve Scherf et al.
# Submitted via: audiograbber 1.83.01
#
DISCID=100dc814
DTITLE=Various Artist - 100 Country Gospel Favourites D3
DYEAR=2004
DGENRE=Gospel
TTITLE0=Rock of Ages
TTITLE1=Leaning
TTITLE2=The Preacher
TTITLE3=Savior Like a Shepherd Lead Us
TTITLE4=It Is Well
TTITLE5=The Narrow Way
TTITLE6=I Am Thine Oh Lord
TTITLE7=For The Beauty od the Earth
TTITLE8=There Is A Name I Love To Hear
TTITLE9=Footsteps of Jesus
TTITLE10=Just A Closer Walk With Thee
TTITLE11=On The Jericho Road
TTITLE12=The Great Speckled Bird
TTITLE13=He Touched Me
TTITLE14=Where Could I Go
TTITLE15=He's On His way
TTITLE16=Amazing Grace
TTITLE17=His Hand In Mine
TTITLE18=People Get Ready
TTITLE19=You Can't Be A Beacon
EXTD=
EXTT0=
EXTT1=
EXTT2=
EXTT3=
EXTT4=
EXTT5=
EXTT6=
EXTT7=
EXTT8=
EXTT9=
EXTT10=
EXTT11=
EXTT12=
EXTT13=
EXTT14=
EXTT15=
EXTT16=
EXTT17=
EXTT18=
EXTT19=
PLAYORDER=
